<svg width="185" height="44" viewBox="0 0 185 44" xmlns="http://www.w3.org/2000/svg"><path d="M20.222 11.843c.53 1.285.827 2.686.84 4.154h.005v12.068h-6.318V16.098h-.002c0-2.822-2.332-5.118-5.197-5.118-1.09 0-2.13.327-3.012.947v15.9H0V11.654h6.538V5.15a11.704 11.704 0 0 1 3.012-.392c4.71 0 8.767 2.8 10.548 6.798V5.149a11.705 11.705 0 0 1 3.012-.392c6.315 0 11.456 5.033 11.513 11.24h.004v12.068h-6.318V16.098h-.002c0-2.822-2.331-5.118-5.197-5.118a5.21 5.21 0 0 0-2.888.863zm73.973-.189V5.15a11.702 11.702 0 0 1 3.012-.392c6.314 0 11.456 5.033 11.512 11.24h.005v12.068h-6.318V16.098h-.002c0-2.822-2.332-5.118-5.197-5.118a5.21 5.21 0 0 0-2.77.786v16.061H87.9V11.654h6.296zm90.445 2.325c1.604 6.297-2.305 12.633-8.712 14.209a12.22 12.22 0 0 1-2.704.35 12.094 12.094 0 0 1-8.188-2.996l3.951-4.346a6.121 6.121 0 0 0 5.502 1.337 6.011 6.011 0 0 0 3.858-2.97h-16.96c-1.603-6.298 2.306-12.64 8.713-14.215 3.854-.948 7.925.04 10.892 2.644l-3.95 4.348a6.122 6.122 0 0 0-5.502-1.338 6.008 6.008 0 0 0-3.862 2.977h16.962zM54.234 29.254h-5.926c-6.743 0-12.228-5.495-12.228-12.249 0-6.754 5.485-12.248 12.228-12.248 6.743 0 12.229 5.494 12.229 12.248v5.935H54.23v-5.935c0-3.27-2.656-5.931-5.922-5.931-3.265 0-5.921 2.66-5.921 5.931 0 3.27 2.656 5.932 5.921 5.932h5.926v6.317zm27.605-4.89c4.015 3.709 4.872 9.825 1.744 14.5C81.357 42.192 77.639 44 73.852 44c-2.183 0-4.389-.6-6.347-1.857l3.492-5.218c2.417 1.55 5.673.887 7.257-1.48 1.583-2.367.905-5.555-1.511-7.106a5.284 5.284 0 0 0-2.832-.84l-.067.002-.056-.002c-.328.006-.658.041-.987.108a5.21 5.21 0 0 0-3.315 2.212l-5.329-3.42a11.497 11.497 0 0 1 1.715-2.013c-2.24-2.075-3.64-5.008-3.64-8.257 0-6.27 5.209-11.372 11.612-11.372 6.403 0 11.612 5.102 11.612 11.372 0 3.238-1.392 6.162-3.617 8.235zm70.23 3.463V5.708h6.537v22.119h-6.538zm-3.633-15.791h-5.261v4.9h.002c0 2.829 2.347 5.13 5.232 5.13v6.237c-6.357 0-11.533-5.045-11.589-11.265h-.005L136.813 0h6.36v5.885h5.263v6.15zm-13.318 4.494c0 2.1-.546 4.134-1.536 5.925h-5.304l-.004.005h-5.388v-5.968h5.925c-.021-3.254-2.668-5.895-5.922-5.895-3.266 0-5.923 2.662-5.923 5.933s2.657 5.933 5.923 5.933v6.315c-6.743 0-12.228-5.495-12.228-12.248 0-6.754 5.485-12.249 12.228-12.249 6.743 0 12.229 5.495 12.229 12.249zm-61.274-5.534c-2.89 0-5.241 2.303-5.241 5.133 0 2.791 2.288 5.068 5.123 5.13.073-.002.144 0 .217 0 2.844-.052 5.142-2.332 5.142-5.13 0-2.83-2.351-5.133-5.241-5.133z" fill="#FFF"/><path fill="#E078D6" d="M80 5h6V0h-6z"/><path fill="#74E24A" d="M55 35h6v-5h-6z"/></svg>
