<svg xmlns="http://www.w3.org/2000/svg" style="background-color:#22292f;" width="30" height="30"><path fill="#FFF" d="M0 10.303h5.447v13.908H0zm17.555 3.865h.004V24.5h-5.264V14.255h-.001c0-2.416-1.943-4.382-4.33-4.382-.908 0-1.775.28-2.51.81V4.882a9.504 9.504 0 0 1 2.51-.336c5.26 0 9.544 4.31 9.591 9.623z"/><path d="M28.767 14.168h.004V24.5h-5.264V14.255h-.001c0-2.416-1.943-4.382-4.33-4.382a4.26 4.26 0 0 0-2.51.81V4.882a9.505 9.505 0 0 1 2.51-.336c5.26 0 9.545 4.31 9.591 9.623z" fill="#FFF"/><path fill="#E078D6" d="M24.242 0h5.75v5.745h-5.75z"/><path fill="#74E24A" d="M5.455 24.242h5.75v5.745h-5.75z"/></svg>